<svg width="129" height="129" viewBox="0 0 129 129" fill="none" xmlns="http://www.w3.org/2000/svg">
<path d="M94.6825 128.36H33.6753C15.0771 128.36 0 113.283 0 94.6851V33.6786C0 15.0828 15.0771 0.000244141 33.6753 0.000244141H94.6825C113.28 0.000244141 128.357 15.0828 128.357 33.6786V94.6851C128.357 113.283 113.28 128.36 94.6825 128.36Z" fill="#7FAAC0"/>
<path d="M41.9173 64.548C41.9173 69.7251 39.4247 73.9302 36.3494 73.9302C33.274 73.9302 30.7822 69.7251 30.7822 64.548C30.7822 59.3631 33.274 55.161 36.3494 55.161C39.4247 55.161 41.9173 59.3631 41.9173 64.548Z" fill="#2E2D2D"/>
<path d="M97.596 64.548C97.596 69.7251 95.1034 73.9302 92.0281 73.9302C88.9528 73.9302 86.4609 69.7251 86.4609 64.548C86.4609 59.3631 88.9528 55.161 92.0281 55.161C95.1034 55.161 97.596 59.3631 97.596 64.548Z" fill="#2E2D2D"/>
</svg>
