<svg width="129" height="129" viewBox="0 0 129 129" fill="none" xmlns="http://www.w3.org/2000/svg">
<path d="M94.9393 128.36H34.7065C15.8941 128.36 0.644531 113.108 0.644531 94.2951V34.0626C0.644531 15.25 15.8941 0.000350952 34.7065 0.000350952H94.9393C113.751 0.000350952 129.001 15.25 129.001 34.0626V94.2951C129.001 113.108 113.751 128.36 94.9393 128.36Z" fill="#D7BCE8"/>
<path d="M18.7787 74.3604C14.4666 85.7673 10.6103 97.3519 7.04479 109.006C6.85133 109.641 6.66607 110.322 6.87919 110.949C7.2162 111.947 8.37034 112.365 9.38456 112.636C15.5603 114.315 21.8464 115.592 28.1875 116.451C32.883 117.085 35.4802 115.716 36.2973 111.026C37.4738 104.27 37.05 96.841 37.5509 89.9849C38.1857 81.2865 38.9641 72.5962 39.8861 63.9212C40.6236 56.9781 43.3905 48.0153 41.0508 41.1992C40.4392 39.4262 38.8598 37.8445 36.9841 37.8452C35.1129 37.8452 33.5707 39.3736 32.7061 41.0335C27.2195 51.565 22.9755 63.2557 18.7787 74.3604Z" fill="white"/>
<path d="M42.1823 40.163C43.6363 39.9571 44.9432 39.1933 46.2067 38.445C47.8578 37.4668 49.5742 36.4268 50.58 34.7924C51.0433 34.041 51.3099 33.004 50.7538 32.3168C50.3813 31.8556 49.7495 31.7016 49.1601 31.6451C45.1184 31.2597 41.1524 34.147 37.1991 33.2269C35.4972 32.8314 26.5933 28.3763 29.1885 33.565C31.0037 37.1952 38.3917 40.6977 42.1823 40.163Z" fill="#2E2D2D"/>
<path d="M110.669 73.401C115.043 84.7843 118.962 96.346 122.592 107.985C122.789 108.612 122.977 109.3 122.768 109.927C122.436 110.925 121.284 111.343 120.272 111.63C114.106 113.332 107.827 114.648 101.489 115.545C96.7983 116.203 94.1935 114.849 93.3508 110.159C92.1374 103.411 92.5204 95.9823 91.9818 89.1337C91.2993 80.4352 90.4736 71.7527 89.5047 63.0777C88.7285 56.1393 85.9132 47.1919 88.2155 40.3626C88.8167 38.5874 90.3877 36.9956 92.2635 36.9863C94.1347 36.9762 95.6855 38.4961 96.5592 40.1506C102.103 50.6526 106.411 62.3194 110.669 73.401Z" fill="white"/>
<path d="M86.3609 40.163C84.9068 39.9571 83.5997 39.1933 82.336 38.445C80.6854 37.4668 78.9689 36.4268 77.9629 34.7924C77.4994 34.041 77.2332 33.004 77.7888 32.3168C78.1618 31.8556 78.7933 31.7016 79.383 31.6451C83.4248 31.2597 87.3909 34.147 91.3437 33.2269C93.0455 32.8314 101.949 28.3763 99.3547 33.565C97.5393 37.1952 90.1512 40.6977 86.3609 40.163Z" fill="#2E2D2D"/>
<path d="M44.2967 91.61C43.9194 83.7009 50.9991 77.9668 56.7735 73.7802C59.3852 71.8842 62.0945 69.4001 65.4368 68.9203C69.2071 68.3786 72.2847 71.1181 74.6225 73.726C77.0323 76.4111 79.2386 79.2823 81.198 82.3158C83.2542 85.4965 85.065 89.5592 83.3401 92.9409C82.0067 95.5488 78.8834 96.8181 75.9505 96.8876C73.0176 96.9496 70.1659 96.0443 67.3127 95.3553C65.1381 94.8369 62.8003 94.5427 60.5375 94.8215C59.386 94.9684 58.2546 95.2625 57.1836 95.7035C56.084 96.1678 55.1182 96.8489 53.9962 97.2667C52.0625 97.9789 49.7803 98.0173 47.8477 97.1893C45.8813 96.3535 44.6298 94.5893 44.3699 92.4766C44.3345 92.1904 44.3103 91.8962 44.2967 91.61Z" fill="#2E2D2D"/>
</svg>
