<svg width="126" height="126" viewBox="0 0 126 126" fill="none" xmlns="http://www.w3.org/2000/svg">
<path d="M92.9425 126H33.0567C14.8002 126 0 111.2 0 92.9433V33.0567C0 14.8002 14.8002 3.8147e-05 33.0567 3.8147e-05H92.9425C111.199 3.8147e-05 125.999 14.8002 125.999 33.0567V92.9433C125.999 111.2 111.199 126 92.9425 126Z" fill="#FFAD7B"/>
<path d="M81.5517 90.5035C82.5803 90.8795 83.6188 90.0128 83.4638 88.9273C82.1762 79.8814 73.5048 72.8873 62.999 72.8873C52.4969 72.8873 43.8271 79.8768 42.5349 88.9197C42.38 90.0067 43.4222 90.8742 44.453 90.4936L54.352 86.8359C59.8685 84.7978 65.9297 84.7879 71.453 86.8086L81.5517 90.5035Z" fill="#2E2D2D"/>
<path d="M46.2793 55.8923C46.2793 59.8174 44.3916 62.9995 42.0617 62.9995C39.7334 62.9995 37.8457 59.8174 37.8457 55.8923C37.8457 51.9665 39.7334 48.7843 42.0617 48.7843C44.3916 48.7843 46.2793 51.9665 46.2793 55.8923Z" fill="#2E2D2D"/>
<path d="M88.447 55.8923C88.447 59.8174 86.5586 62.9995 84.2295 62.9995C81.9012 62.9995 80.0127 59.8174 80.0127 55.8923C80.0127 51.9665 81.9012 48.7843 84.2295 48.7843C86.5586 48.7843 88.447 51.9665 88.447 55.8923Z" fill="#2E2D2D"/>
<path d="M46.8429 50.7321C44.3072 48.7957 38.3167 45.2322 28.553 45.2155C28.0562 45.2148 27.5791 44.9838 27.3041 44.5698C26.8092 43.8278 26.3722 42.5883 27.9491 41.5995C28.0247 41.5521 28.102 41.5074 28.1806 41.4653C28.8245 41.12 32.075 39.5307 36.1619 40.2365C37.746 40.5101 39.2142 41.2263 40.582 42.0709C42.6283 43.3345 45.6559 45.4907 47.225 47.992C47.3367 48.1683 47.4112 48.3635 47.4598 48.5671L47.8183 50.0947C47.952 50.6621 47.3063 51.0853 46.8429 50.7321Z" fill="#2E2D2D"/>
<path d="M79.1544 50.7321C81.6901 48.7957 87.6814 45.2322 97.4451 45.2155C97.9419 45.2148 98.4189 44.9838 98.6939 44.5698C99.1889 43.8277 99.6259 42.5883 98.0489 41.5995C97.9733 41.5521 97.8961 41.5075 97.8175 41.4653C97.1738 41.1201 93.9236 39.531 89.8365 40.2364C88.2516 40.5099 86.7827 41.2264 85.4143 42.0715C83.368 43.3352 80.3411 45.4911 78.7723 47.992C78.6621 48.1683 78.5862 48.3635 78.5391 48.5671L78.179 50.0947C78.0453 50.6621 78.6918 51.0853 79.1544 50.7321Z" fill="#2E2D2D"/>
</svg>
