<svg width="126" height="126" viewBox="0 0 126 126" fill="none" xmlns="http://www.w3.org/2000/svg">
<path d="M92.9437 126.004H33.0569C14.8 126.004 0 111.204 0 92.9468V33.0602C0 14.8057 14.8 8.39233e-05 33.0569 8.39233e-05H92.9437C111.2 8.39233e-05 126 14.8057 126 33.0602V92.9468C126 111.204 111.2 126.004 92.9437 126.004Z" fill="#F5D33D"/>
<path d="M92.9437 126.004H33.0569C14.8 126.004 0 111.204 0 92.9468V33.0602C0 14.8057 14.8 8.39233e-05 33.0569 8.39233e-05H92.9437C111.2 8.39233e-05 126 14.8057 126 33.0602V92.9468C126 111.204 111.2 126.004 92.9437 126.004Z" fill="#F5D33D"/>
<path d="M41.1364 49.9016C41.1364 54.9913 38.6898 59.1162 35.671 59.1162C32.6526 59.1162 30.2051 54.9913 30.2051 49.9016C30.2051 44.8195 32.6526 40.6946 35.671 40.6946C38.6898 40.6946 41.1364 44.8195 41.1364 49.9016Z" fill="#2E2D2D"/>
<path d="M95.7937 49.9016C95.7937 54.9913 93.3469 59.1162 90.328 59.1162C87.3099 59.1162 84.8623 54.9913 84.8623 49.9016C84.8623 44.8195 87.3099 40.6946 90.328 40.6946C93.3469 40.6946 95.7937 44.8195 95.7937 49.9016Z" fill="#2E2D2D"/>
<path d="M81.7624 70.8014C86.7108 70.8014 89.9188 76.0066 87.7158 80.4376C83.562 88.7915 74.1727 94.6196 63.255 94.6196C52.3376 94.6196 42.9479 88.7915 38.7944 80.4376C36.5911 76.0066 39.7994 70.8014 44.7476 70.8014H81.7624Z" fill="#2E2D2D"/>
</svg>
