<svg width="129" height="128" viewBox="0 0 129 128" fill="none" xmlns="http://www.w3.org/2000/svg">
<path d="M94.4809 128H33.5816C15.0352 128 0 112.965 0 94.4184V33.5817C0 15.0352 15.0352 8.39233e-05 33.5816 8.39233e-05H94.4423C112.979 8.39233e-05 128.012 15.0221 128.019 33.5608L128.058 94.3976C128.073 112.953 113.033 128 94.4809 128Z" fill="#A2D16F"/>
<path d="M89.912 92.7871C87.4965 92.7871 84.7339 91.6666 81.647 89.4302C79.0001 87.5164 76.8624 86.7987 75.9286 87.5102C75.6277 87.7386 75.2882 88.2209 74.9332 88.7326C74.4316 89.4549 73.8605 90.2729 73.0039 90.9944C69.8553 93.6607 65.5184 92.9322 62.5087 91.361C61.3511 90.756 60.3247 90.0514 59.3293 89.3692C58.1948 88.5937 57.1222 87.8613 56.0294 87.3983C53.3902 86.2847 50.0973 86.7215 47.8385 88.4879C47.5321 88.7279 47.2134 89.0104 46.877 89.3106C45.9216 90.1618 44.8381 91.1264 43.3472 91.7183C38.9345 93.4708 35.2219 90.7946 32.2385 88.6438C30.5685 87.44 28.9911 86.3025 27.474 85.9027C25.1943 85.3046 22.3768 86.855 21.6645 89.096C21.1946 90.5769 19.6149 91.3965 18.1309 90.9257C16.65 90.455 15.8296 88.873 16.3012 87.3921C17.9318 82.2641 23.708 79.0893 28.9078 80.4606C31.4351 81.1274 33.6098 82.6955 35.5298 84.0792C38.3805 86.1342 39.8737 87.0433 41.269 86.4884C41.8377 86.2631 42.4667 85.7021 43.1334 85.1086C43.5224 84.7629 43.9236 84.4056 44.3728 84.0545C48.249 81.0232 53.6834 80.3001 58.218 82.214C59.8385 82.8977 61.1968 83.8276 62.5087 84.7274C63.4039 85.3425 64.2527 85.9228 65.1093 86.3719C66.5369 87.1174 68.4585 87.4693 69.3691 86.6991C69.6624 86.4514 69.9788 85.9953 70.3183 85.5122C70.8508 84.7459 71.5145 83.7921 72.5254 83.0273C74.7248 81.3566 78.6682 80.3225 84.9499 84.8733C87.6663 86.8419 89.7808 87.5812 90.7454 86.8982C91.0387 86.6906 91.3782 86.2577 91.7409 85.7993C92.0033 85.4683 92.2657 85.1372 92.5435 84.8246C95.0747 82.0102 99.1956 80.8257 103.309 81.737C107.422 82.6477 110.663 85.4605 111.767 89.0775C112.222 90.5638 111.381 92.1366 109.899 92.5888C108.402 93.0441 106.836 92.2029 106.388 90.7174C105.771 88.7125 103.764 87.602 102.097 87.2316C100.423 86.8604 98.1307 87.0217 96.7339 88.5821C96.5333 88.8074 96.348 89.0474 96.1551 89.2859C95.6226 89.9688 94.9512 90.8185 93.9866 91.4968C92.7673 92.3573 91.4091 92.7871 89.912 92.7871Z" fill="white"/>
<path d="M26.8001 47.545C27.0516 48.0011 27.561 48.3892 28.3651 48.5984C35.0411 50.3355 48.1748 48.1192 49.2475 39.6944C49.4234 38.3146 48.7127 34.9515 46.7301 36.5505C44.6434 38.2336 43.2166 40.5726 41.0628 42.2194C38.9498 43.8354 36.478 44.7306 33.8033 44.6357C32.0639 44.5739 30.1771 44.1896 28.4747 44.7182C26.9436 45.1936 26.2437 46.5356 26.8001 47.545Z" fill="#2E2D2D"/>
<path d="M99.7896 47.545C99.5427 48.0011 99.0334 48.3892 98.2231 48.5984C91.5478 50.3355 78.4133 48.1192 77.3406 39.6944C77.1709 38.3146 77.8808 34.9515 79.8641 36.5505C81.9477 38.2336 83.3754 40.5726 85.5285 42.2194C87.643 43.8354 90.1124 44.7306 92.7902 44.6357C94.5266 44.5739 96.4172 44.1896 98.115 44.7182C99.6507 45.1936 100.345 46.5356 99.7896 47.545Z" fill="#2E2D2D"/>
<path d="M48.6834 58.9176C49.449 59.1985 50.182 59.5396 50.8303 60.0258C54.164 62.5269 50.5432 65.5173 48.205 66.9881C45.6684 68.5848 41.5528 71.4224 38.3912 70.8065C37.8942 70.7101 37.3748 70.4994 37.1233 70.0603C35.9287 67.9813 39.264 66.9959 40.6129 66.4132C41.6138 65.9811 43.5786 65.0064 43.4597 63.6559C43.425 63.2585 43.1812 62.9081 42.8949 62.6288C40.9154 60.6972 36.6649 61.2644 35.8855 58.0502C35.7813 57.6196 35.846 57.1288 36.1385 56.7947C36.424 56.4675 36.8709 56.3378 37.2984 56.2653C39.9407 55.8185 42.5414 56.7283 44.9599 57.7006C46.1422 58.1752 47.4549 58.4677 48.6834 58.9176Z" fill="#2E2D2D"/>
<path d="M77.9137 58.9176C77.142 59.1985 76.4088 59.5396 75.7606 60.0258C72.4268 62.5269 76.0539 65.5173 78.3844 66.9881C80.9233 68.5848 85.0443 71.4224 88.2005 70.8065C88.7022 70.7101 89.2192 70.4994 89.4739 70.0603C90.6623 67.9813 87.3285 66.9959 85.978 66.4132C84.9825 65.9811 83.0147 65.0064 83.1304 63.6559C83.169 63.2585 83.416 62.9081 83.7015 62.6288C85.6771 60.6972 89.9292 61.2644 90.7086 58.0502C90.8089 57.6196 90.7472 57.1288 90.4539 56.7947C90.1684 56.4675 89.7208 56.3378 89.2964 56.2653C86.6494 55.8185 84.0488 56.7283 81.6333 57.7006C80.4526 58.1752 79.1407 58.4677 77.9137 58.9176Z" fill="#2E2D2D"/>
</svg>
