<svg width="25" height="24" viewBox="0 0 25 24" fill="none" xmlns="http://www.w3.org/2000/svg">
<g clip-path="url(#clip0_23_13431)">
<path d="M6.51019 16.9436C7.49345 18.6467 9.0368 19.9561 10.8773 20.6488C12.7178 21.3415 14.7415 21.3746 16.6036 20.7425C18.4658 20.1104 20.0512 18.8522 21.0896 17.1822C22.1281 15.5122 22.5554 13.5338 22.2987 11.5841C22.042 9.63445 21.1172 7.83407 19.6819 6.48977C18.2466 5.14548 16.3896 4.34044 14.4273 4.21182C12.465 4.0832 10.5188 4.63897 8.92034 5.78442C7.32187 6.92988 6.17001 8.59415 5.66104 10.4937" stroke="white" stroke-width="2" stroke-linecap="round" stroke-linejoin="round"/>
<path d="M2.89629 8.50085L4.89632 12.0009L8.89624 10.5" stroke="#6F6F6F" stroke-width="2" stroke-linecap="round" stroke-linejoin="round"/>
<path d="M13.3965 8.5V13L16.3965 16" stroke="white" stroke-width="2" stroke-linecap="round" stroke-linejoin="round"/>
</g>
<defs>
<clipPath id="clip0_23_13431">
<rect width="23.8537" height="24" fill="white" transform="translate(0.396484)"/>
</clipPath>
</defs>
</svg>
