<svg width="56" height="53" viewBox="0 0 56 53" fill="none" xmlns="http://www.w3.org/2000/svg">
<path d="M40.9571 53H15.3563C7.36046 53 0.878906 46.7898 0.878906 39.1303V14.6066C0.878906 6.94709 7.36046 0.738182 15.3563 0.738182H40.9571C48.9527 0.738182 55.4343 6.94709 55.4343 14.6066V39.1303C55.4343 46.7898 48.9527 53 40.9571 53Z" fill="#D7BCE8"/>
<path d="M8.5883 31.0139C6.75549 35.6583 5.11644 40.3749 3.601 45.1201C3.51878 45.3784 3.44003 45.6556 3.53062 45.9108C3.67386 46.3172 4.1644 46.4874 4.59548 46.5977C7.22034 47.2814 9.89215 47.8013 12.5873 48.1511C14.583 48.4094 15.6869 47.8518 16.0342 45.9423C16.5343 43.1917 16.3542 40.1669 16.567 37.3754C16.8368 33.8339 17.1677 30.2956 17.5596 26.7636C17.8731 23.9367 19.0491 20.2875 18.0546 17.5123C17.7947 16.7905 17.1234 16.1465 16.3261 16.1468C15.5308 16.1468 14.8753 16.769 14.5079 17.4449C12.1759 21.7328 10.372 26.4926 8.5883 31.0139Z" fill="white"/>
<path d="M18.5315 17.0902C19.1495 17.0064 19.7049 16.6954 20.2419 16.3907C20.9437 15.9925 21.6732 15.569 22.1007 14.9036C22.2977 14.5976 22.411 14.1754 22.1746 13.8956C22.0163 13.7078 21.7477 13.6451 21.4972 13.6221C19.7794 13.4652 18.0937 14.6408 16.4134 14.2662C15.6901 14.1051 11.9056 12.2913 13.0087 14.4038C13.7802 15.8819 16.9203 17.3079 18.5315 17.0902Z" fill="#2E2D2D"/>
<path d="M47.6413 30.6232C49.5003 35.2579 51.1663 39.9652 52.7089 44.7039C52.7928 44.9592 52.8727 45.2395 52.7835 45.4948C52.6428 45.9012 52.153 46.0714 51.7228 46.188C49.102 46.8812 46.4332 47.4168 43.7397 47.7822C41.7458 48.05 40.6387 47.4986 40.2805 45.5893C39.7648 42.8419 39.9276 39.8172 39.6987 37.0287C39.4086 33.4872 39.0576 29.9521 38.6458 26.42C38.3159 23.5951 37.1193 19.9521 38.0978 17.1716C38.3534 16.4488 39.0211 15.8007 39.8184 15.7969C40.6137 15.7928 41.2729 16.4116 41.6442 17.0853C44.0005 21.3612 45.8316 26.1113 47.6413 30.6232Z" fill="white"/>
<path d="M37.3113 17.0902C36.6932 17.0064 36.1377 16.6954 35.6006 16.3907C34.899 15.9925 34.1695 15.569 33.7419 14.9036C33.5449 14.5976 33.4317 14.1754 33.6679 13.8956C33.8264 13.7078 34.0948 13.6451 34.3454 13.6221C36.0634 13.4652 37.749 14.6408 39.4291 14.2662C40.1524 14.1051 43.9369 12.2913 42.8341 14.4038C42.0624 15.8819 38.9223 17.3079 37.3113 17.0902Z" fill="#2E2D2D"/>
<path d="M19.4319 38.037C19.2716 34.8168 22.2807 32.4822 24.7349 30.7776C25.845 30.0056 26.9966 28.9942 28.4171 28.7989C30.0196 28.5783 31.3277 29.6937 32.3214 30.7555C33.3456 31.8488 34.2833 33.0178 35.1161 34.2529C35.9901 35.5479 36.7597 37.202 36.0266 38.5789C35.4599 39.6407 34.1324 40.1575 32.8858 40.1858C31.6392 40.211 30.4271 39.8424 29.2144 39.5619C28.2902 39.3508 27.2965 39.2311 26.3348 39.3446C25.8454 39.4044 25.3645 39.5241 24.9093 39.7037C24.4419 39.8927 24.0314 40.17 23.5545 40.3401C22.7326 40.6301 21.7626 40.6457 20.9412 40.3086C20.1054 39.9683 19.5735 39.25 19.463 38.3898C19.448 38.2733 19.4377 38.1535 19.4319 38.037Z" fill="#2E2D2D"/>
</svg>
