<svg width="54" height="52" viewBox="0 0 54 52" fill="none" xmlns="http://www.w3.org/2000/svg">
<path d="M39.5039 51.3022H14.0502C6.29044 51.3022 0 45.2763 0 37.843V13.4602C0 6.02788 6.29044 -0.000255585 14.0502 -0.000255585H39.5039C47.2636 -0.000255585 53.5539 6.02788 53.5539 13.4602V37.843C53.5539 45.2763 47.2636 51.3022 39.5039 51.3022Z" fill="#F5D33D"/>
<path d="M39.5039 51.3022H14.0502C6.29044 51.3022 0 45.2763 0 37.843V13.4602C0 6.02788 6.29044 -0.000256321 14.0502 -0.000256321H39.5039C47.2636 -0.000256321 53.5539 6.02788 53.5539 13.4602V37.843C53.5539 45.2763 47.2636 51.3022 39.5039 51.3022Z" fill="#F5D33D"/>
<path d="M17.484 20.3176C17.484 22.3899 16.4442 24.0693 15.1611 24.0693C13.8782 24.0693 12.8379 22.3899 12.8379 20.3176C12.8379 18.2484 13.8782 16.569 15.1611 16.569C16.4442 16.569 17.484 18.2484 17.484 20.3176Z" fill="#2E2D2D"/>
<path d="M40.7126 20.3176C40.7126 22.3899 39.6726 24.0693 38.3895 24.0693C37.1067 24.0693 36.0664 22.3899 36.0664 20.3176C36.0664 18.2484 37.1067 16.569 38.3895 16.569C39.6726 16.569 40.7126 18.2484 40.7126 20.3176Z" fill="#2E2D2D"/>
<path d="M34.7529 28.8263C36.8561 28.8263 38.2196 30.9456 37.2833 32.7497C35.5178 36.151 31.527 38.5239 26.8867 38.5239C22.2464 38.5239 18.2555 36.151 16.4902 32.7497C15.5537 30.9456 16.9173 28.8263 19.0204 28.8263H34.7529Z" fill="#2E2D2D"/>
</svg>
