<svg width="55" height="53" viewBox="0 0 55 53" fill="none" xmlns="http://www.w3.org/2000/svg">
<path d="M40.3995 52.8535H14.5154C6.6326 52.8535 0.242188 46.732 0.242188 39.1808V14.4111C0.242188 6.85987 6.6326 0.738304 14.5154 0.738304H40.3831C48.2616 0.738304 54.6511 6.85453 54.6543 14.4026L54.6707 39.1723C54.6773 46.7269 48.2846 52.8535 40.3995 52.8535Z" fill="#A2D16F"/>
<path d="M38.4587 38.5161C37.4321 38.5161 36.2579 38.0599 34.9459 37.1493C33.8208 36.3701 32.9122 36.0779 32.5154 36.3676C32.3874 36.4606 32.2431 36.657 32.0923 36.8653C31.8791 37.1594 31.6363 37.4924 31.2723 37.7862C29.934 38.8718 28.0907 38.5752 26.8115 37.9355C26.3195 37.6891 25.8832 37.4023 25.4601 37.1245C24.978 36.8087 24.522 36.5106 24.0576 36.322C22.9358 35.8687 21.5362 36.0465 20.5762 36.7657C20.446 36.8634 20.3105 36.9784 20.1675 37.1006C19.7614 37.4472 19.3009 37.84 18.6672 38.0809C16.7917 38.7945 15.2137 37.7048 13.9457 36.8292C13.2359 36.339 12.5655 35.8759 11.9206 35.7131C10.9517 35.4696 9.75418 36.1008 9.45144 37.0133C9.25169 37.6162 8.58027 37.9499 7.94953 37.7583C7.3201 37.5666 6.97144 36.9225 7.17185 36.3195C7.86491 34.2317 10.32 32.9391 12.5301 33.4974C13.6043 33.7689 14.5285 34.4073 15.3446 34.9707C16.5562 35.8074 17.1909 36.1775 17.7839 35.9516C18.0257 35.8599 18.293 35.6314 18.5764 35.3898C18.7417 35.2491 18.9122 35.1036 19.1031 34.9606C20.7507 33.7264 23.0605 33.432 24.9878 34.2113C25.6766 34.4896 26.2539 34.8682 26.8115 35.2346C27.192 35.485 27.5527 35.7213 27.9168 35.9042C28.5236 36.2077 29.3403 36.351 29.7274 36.0374C29.852 35.9365 29.9865 35.7508 30.1308 35.5541C30.3571 35.2421 30.6392 34.8538 31.0689 34.5424C32.0037 33.8622 33.6798 33.4411 36.3497 35.294C37.5042 36.0955 38.403 36.3965 38.813 36.1184C38.9376 36.0339 39.0819 35.8577 39.2361 35.671C39.3476 35.5362 39.4591 35.4014 39.5772 35.2742C40.653 34.1283 42.4045 33.646 44.1528 34.0171C45.901 34.3878 47.2786 35.5331 47.7477 37.0058C47.9412 37.6109 47.5837 38.2512 46.9539 38.4354C46.3176 38.6207 45.6517 38.2783 45.4615 37.6734C45.1991 36.8571 44.3463 36.405 43.6378 36.2542C42.9261 36.1031 41.9519 36.1687 41.3582 36.804C41.273 36.8958 41.1942 36.9935 41.1122 37.0906C40.8859 37.3686 40.6006 37.7146 40.1906 37.9908C39.6723 38.3411 39.095 38.5161 38.4587 38.5161Z" fill="white"/>
<path d="M11.6314 20.096C11.7383 20.2817 11.9548 20.4397 12.2966 20.5249C15.1341 21.2321 20.7163 20.3298 21.1723 16.8996C21.247 16.3378 20.9449 14.9685 20.1023 15.6196C19.2154 16.3048 18.609 17.2572 17.6935 17.9277C16.7954 18.5856 15.7449 18.9501 14.608 18.9114C13.8687 18.8863 13.0667 18.7298 12.3432 18.9451C11.6924 19.1386 11.3949 19.685 11.6314 20.096Z" fill="#2E2D2D"/>
<path d="M42.6553 20.096C42.5504 20.2817 42.3339 20.4397 41.9895 20.5249C39.1523 21.2321 33.5697 20.3298 33.1138 16.8996C33.0417 16.3378 33.3434 14.9685 34.1864 15.6196C35.072 16.3048 35.6788 17.2572 36.5939 17.9277C37.4926 18.5856 38.5422 18.9501 39.6804 18.9114C40.4184 18.8863 41.222 18.7298 41.9436 18.9451C42.5963 19.1386 42.8915 19.685 42.6553 20.096Z" fill="#2E2D2D"/>
<path d="M20.932 24.7264C21.2574 24.8408 21.5689 24.9797 21.8445 25.1776C23.2614 26.196 21.7225 27.4135 20.7286 28.0124C19.6505 28.6624 17.9013 29.8178 16.5575 29.567C16.3462 29.5277 16.1255 29.442 16.0186 29.2632C15.5108 28.4167 16.9284 28.0155 17.5018 27.7783C17.9272 27.6023 18.7623 27.2055 18.7118 26.6556C18.697 26.4938 18.5934 26.3512 18.4717 26.2374C17.6304 25.451 15.8237 25.6819 15.4925 24.3733C15.4482 24.198 15.4757 23.9981 15.6 23.8621C15.7214 23.7289 15.9113 23.6761 16.093 23.6465C17.2161 23.4646 18.3214 23.8351 19.3494 24.2309C19.8519 24.4242 20.4098 24.5433 20.932 24.7264Z" fill="#2E2D2D"/>
<path d="M33.3562 24.7264C33.0282 24.8408 32.7166 24.9797 32.4411 25.1776C31.0241 26.196 32.5657 27.4135 33.5562 28.0124C34.6354 28.6624 36.3869 29.8178 37.7284 29.567C37.9416 29.5277 38.1614 29.442 38.2696 29.2632C38.7747 28.4167 37.3578 28.0155 36.7838 27.7783C36.3607 27.6023 35.5242 27.2055 35.5734 26.6556C35.5898 26.4938 35.6948 26.3512 35.8162 26.2374C36.6559 25.451 38.4631 25.6819 38.7944 24.3733C38.837 24.198 38.8108 23.9981 38.6862 23.8621C38.5648 23.7289 38.3746 23.6761 38.1942 23.6465C37.0691 23.4646 35.9638 23.8351 34.9371 24.2309C34.4353 24.4242 33.8777 24.5433 33.3562 24.7264Z" fill="#2E2D2D"/>
</svg>
