<svg width="55" height="53" viewBox="0 0 55 53" fill="none" xmlns="http://www.w3.org/2000/svg">
<path d="M40.243 53H14.313C6.40824 53 0 46.8613 0 39.2891V14.4503C0 6.87899 6.40824 0.738132 14.313 0.738132H40.243C48.1475 0.738132 54.5557 6.87899 54.5557 14.4503V39.2891C54.5557 46.8613 48.1475 53 40.243 53Z" fill="#7FAAC0"/>
<path d="M17.8167 27.0189C17.8167 29.1268 16.7573 30.8389 15.4502 30.8389C14.1431 30.8389 13.084 29.1268 13.084 27.0189C13.084 24.9079 14.1431 23.197 15.4502 23.197C16.7573 23.197 17.8167 24.9079 17.8167 27.0189Z" fill="#2E2D2D"/>
<path d="M41.4808 27.0189C41.4808 29.1268 40.4214 30.8389 39.1143 30.8389C37.8071 30.8389 36.748 29.1268 36.748 27.0189C36.748 24.9079 37.8071 23.197 39.1143 23.197C40.4214 23.197 41.4808 24.9079 41.4808 27.0189Z" fill="#2E2D2D"/>
</svg>
