<svg width="54" height="53" viewBox="0 0 54 53" fill="none" xmlns="http://www.w3.org/2000/svg">
<path d="M39.9507 52.0391H14.4974C6.73779 52.0391 0.447266 46.0132 0.447266 38.58V14.1972C0.447266 6.76403 6.73779 0.738132 14.4974 0.738132H39.9507C47.7103 0.738132 54.0008 6.76403 54.0008 14.1972V38.58C54.0008 46.0132 47.7103 52.0391 39.9507 52.0391Z" fill="#FFAD7B"/>
<path d="M35.1075 37.5867C35.5446 37.7398 35.986 37.3869 35.9202 36.9449C35.3729 33.2619 31.6873 30.4143 27.222 30.4143C22.7583 30.4143 19.0733 33.2601 18.5241 36.9418C18.4583 37.3844 18.9012 37.7376 19.3394 37.5827L23.5467 36.0934C25.8914 35.2636 28.4676 35.2596 30.8152 36.0823L35.1075 37.5867Z" fill="#2E2D2D"/>
<path d="M20.1177 23.4945C20.1177 25.0926 19.3154 26.3882 18.3251 26.3882C17.3355 26.3882 16.5332 25.0926 16.5332 23.4945C16.5332 21.8961 17.3355 20.6005 18.3251 20.6005C19.3154 20.6005 20.1177 21.8961 20.1177 23.4945Z" fill="#2E2D2D"/>
<path d="M38.0399 23.4945C38.0399 25.0926 37.2373 26.3882 36.2474 26.3882C35.2577 26.3882 34.4551 25.0926 34.4551 23.4945C34.4551 21.8961 35.2577 20.6005 36.2474 20.6005C37.2373 20.6005 38.0399 21.8961 38.0399 23.4945Z" fill="#2E2D2D"/>
<path d="M20.356 21.3937C19.2783 20.6053 16.7321 19.1544 12.5822 19.1476C12.3711 19.1473 12.1683 19.0533 12.0514 18.8847C11.848 18.5925 11.6675 18.1108 12.2624 17.7152C12.3351 17.6669 12.4113 17.6259 12.49 17.5878C12.7646 17.455 13.5087 17.1386 14.5006 17.0637C16.0571 16.9462 17.5441 17.674 18.8045 18.5948C19.4493 19.0658 20.1037 19.6448 20.5184 20.278C20.5659 20.3498 20.5975 20.4293 20.6182 20.5122L20.7706 21.1342C20.8274 21.3652 20.553 21.5375 20.356 21.3937Z" fill="#2E2D2D"/>
<path d="M34.0901 21.3937C35.1679 20.6053 37.7144 19.1544 41.8642 19.1476C42.0754 19.1473 42.2782 19.0533 42.395 18.8847C42.5985 18.5925 42.779 18.1108 42.184 17.7152C42.1113 17.6669 42.0351 17.6259 41.9565 17.5878C41.6821 17.4551 40.9382 17.1388 39.9467 17.0638C38.3895 16.946 36.9017 17.6741 35.6407 18.5954C34.9963 19.0663 34.3423 19.6451 33.9277 20.278C33.8809 20.3498 33.8486 20.4293 33.8286 20.5122L33.6756 21.1342C33.6187 21.3652 33.8935 21.5375 34.0901 21.3937Z" fill="#2E2D2D"/>
</svg>
